<mxfile host="app.diagrams.net" modified="2021-10-07T08:32:39.306Z" agent="5.0 (Windows NT 10.0; Win64; x64) AppleWebKit/537.36 (KHTML, like Gecko) Chrome/94.0.4606.71 Safari/537.36" etag="A737_aL6E2ODpFFk7z0l" version="15.4.3" type="github">
  <diagram name="Page-1" id="e7e014a7-5840-1c2e-5031-d8a46d1fe8dd">
    <mxGraphModel dx="3200" dy="1053" grid="1" gridSize="10" guides="1" tooltips="1" connect="1" arrows="1" fold="1" page="1" pageScale="1" pageWidth="1169" pageHeight="826" background="none" math="0" shadow="0">
      <root>
        <mxCell id="0" />
        <mxCell id="1" parent="0" />
        <mxCell id="rf6OLHSVhCsBGT3hQJzp-183" style="edgeStyle=none;orthogonalLoop=1;jettySize=auto;html=1;exitX=0.5;exitY=0;exitDx=0;exitDy=0;entryX=0.5;entryY=1;entryDx=0;entryDy=0;endArrow=none;" parent="1" source="rf6OLHSVhCsBGT3hQJzp-190" target="rf6OLHSVhCsBGT3hQJzp-280" edge="1">
          <mxGeometry relative="1" as="geometry" />
        </mxCell>
        <mxCell id="rf6OLHSVhCsBGT3hQJzp-184" style="edgeStyle=none;orthogonalLoop=1;jettySize=auto;html=1;exitX=0.5;exitY=0;exitDx=0;exitDy=0;entryX=0.5;entryY=1;entryDx=0;entryDy=0;endArrow=none;" parent="1" source="rf6OLHSVhCsBGT3hQJzp-190" target="rf6OLHSVhCsBGT3hQJzp-281" edge="1">
          <mxGeometry relative="1" as="geometry" />
        </mxCell>
        <mxCell id="rf6OLHSVhCsBGT3hQJzp-185" style="edgeStyle=none;orthogonalLoop=1;jettySize=auto;html=1;exitX=0.5;exitY=0;exitDx=0;exitDy=0;entryX=1;entryY=0.5;entryDx=0;entryDy=0;endArrow=none;" parent="1" source="rf6OLHSVhCsBGT3hQJzp-190" target="rf6OLHSVhCsBGT3hQJzp-223" edge="1">
          <mxGeometry relative="1" as="geometry" />
        </mxCell>
        <mxCell id="rf6OLHSVhCsBGT3hQJzp-186" style="edgeStyle=none;orthogonalLoop=1;jettySize=auto;html=1;exitX=0.5;exitY=0;exitDx=0;exitDy=0;entryX=1;entryY=0.5;entryDx=0;entryDy=0;endArrow=none;" parent="1" source="rf6OLHSVhCsBGT3hQJzp-190" target="rf6OLHSVhCsBGT3hQJzp-222" edge="1">
          <mxGeometry relative="1" as="geometry" />
        </mxCell>
        <mxCell id="rf6OLHSVhCsBGT3hQJzp-187" style="edgeStyle=none;orthogonalLoop=1;jettySize=auto;html=1;exitX=0.5;exitY=0;exitDx=0;exitDy=0;entryX=0.5;entryY=1;entryDx=0;entryDy=0;endArrow=none;" parent="1" source="rf6OLHSVhCsBGT3hQJzp-190" target="rf6OLHSVhCsBGT3hQJzp-282" edge="1">
          <mxGeometry relative="1" as="geometry" />
        </mxCell>
        <mxCell id="rf6OLHSVhCsBGT3hQJzp-188" style="edgeStyle=none;orthogonalLoop=1;jettySize=auto;html=1;exitX=0.5;exitY=0;exitDx=0;exitDy=0;entryX=1;entryY=0.5;entryDx=0;entryDy=0;endArrow=none;" parent="1" source="rf6OLHSVhCsBGT3hQJzp-190" target="rf6OLHSVhCsBGT3hQJzp-198" edge="1">
          <mxGeometry relative="1" as="geometry" />
        </mxCell>
        <mxCell id="rf6OLHSVhCsBGT3hQJzp-189" style="edgeStyle=none;orthogonalLoop=1;jettySize=auto;html=1;exitX=0.5;exitY=0;exitDx=0;exitDy=0;entryX=0.5;entryY=1;entryDx=0;entryDy=0;endArrow=none;" parent="1" source="rf6OLHSVhCsBGT3hQJzp-190" target="rf6OLHSVhCsBGT3hQJzp-279" edge="1">
          <mxGeometry relative="1" as="geometry" />
        </mxCell>
        <mxCell id="rf6OLHSVhCsBGT3hQJzp-190" value="CUSTOMER" style="rounded=0;whiteSpace=wrap;html=1;" parent="1" vertex="1">
          <mxGeometry x="-368" y="440" width="120" height="60" as="geometry" />
        </mxCell>
        <mxCell id="rf6OLHSVhCsBGT3hQJzp-191" style="edgeStyle=none;orthogonalLoop=1;jettySize=auto;html=1;exitX=0;exitY=0.5;exitDx=0;exitDy=0;entryX=1;entryY=0.5;entryDx=0;entryDy=0;endArrow=none;" parent="1" source="rf6OLHSVhCsBGT3hQJzp-192" target="rf6OLHSVhCsBGT3hQJzp-197" edge="1">
          <mxGeometry relative="1" as="geometry" />
        </mxCell>
        <mxCell id="rf6OLHSVhCsBGT3hQJzp-192" value="HAS" style="rhombus;whiteSpace=wrap;html=1;" parent="1" vertex="1">
          <mxGeometry x="-523" y="441" width="60" height="61" as="geometry" />
        </mxCell>
        <mxCell id="rf6OLHSVhCsBGT3hQJzp-194" style="edgeStyle=none;orthogonalLoop=1;jettySize=auto;html=1;exitX=0.5;exitY=0;exitDx=0;exitDy=0;entryX=0.5;entryY=1;entryDx=0;entryDy=0;endArrow=none;" parent="1" source="rf6OLHSVhCsBGT3hQJzp-197" target="rf6OLHSVhCsBGT3hQJzp-224" edge="1">
          <mxGeometry relative="1" as="geometry" />
        </mxCell>
        <mxCell id="rf6OLHSVhCsBGT3hQJzp-195" style="edgeStyle=none;orthogonalLoop=1;jettySize=auto;html=1;exitX=0.5;exitY=0;exitDx=0;exitDy=0;entryX=0.5;entryY=1;entryDx=0;entryDy=0;endArrow=none;" parent="1" source="rf6OLHSVhCsBGT3hQJzp-197" target="rf6OLHSVhCsBGT3hQJzp-346" edge="1">
          <mxGeometry relative="1" as="geometry" />
        </mxCell>
        <mxCell id="rf6OLHSVhCsBGT3hQJzp-197" value="CREDIT_CARD" style="rounded=0;whiteSpace=wrap;html=1;" parent="1" vertex="1">
          <mxGeometry x="-760.75" y="442" width="120" height="60" as="geometry" />
        </mxCell>
        <mxCell id="rf6OLHSVhCsBGT3hQJzp-198" value="&lt;u&gt;Id&lt;/u&gt;" style="ellipse;whiteSpace=wrap;html=1;" parent="1" vertex="1">
          <mxGeometry x="-493" y="370" width="50" height="20" as="geometry" />
        </mxCell>
        <mxCell id="rf6OLHSVhCsBGT3hQJzp-199" style="edgeStyle=none;orthogonalLoop=1;jettySize=auto;html=1;exitX=1;exitY=0.5;exitDx=0;exitDy=0;entryX=0;entryY=0.5;entryDx=0;entryDy=0;endArrow=none;" parent="1" source="rf6OLHSVhCsBGT3hQJzp-202" target="rf6OLHSVhCsBGT3hQJzp-291" edge="1">
          <mxGeometry relative="1" as="geometry" />
        </mxCell>
        <mxCell id="rf6OLHSVhCsBGT3hQJzp-200" style="edgeStyle=none;rounded=0;orthogonalLoop=1;jettySize=auto;html=1;exitX=0.5;exitY=1;exitDx=0;exitDy=0;entryX=0.5;entryY=0;entryDx=0;entryDy=0;endArrow=none;" parent="1" source="rf6OLHSVhCsBGT3hQJzp-202" target="rf6OLHSVhCsBGT3hQJzp-210" edge="1">
          <mxGeometry relative="1" as="geometry" />
        </mxCell>
        <mxCell id="bHLAxbNGQcejUqIh85Ex-22" style="edgeStyle=none;orthogonalLoop=1;jettySize=auto;html=1;exitX=1;exitY=0.5;exitDx=0;exitDy=0;endArrow=none;strokeColor=#000000;startArrow=none;" edge="1" parent="1" source="bHLAxbNGQcejUqIh85Ex-25" target="bHLAxbNGQcejUqIh85Ex-23">
          <mxGeometry relative="1" as="geometry">
            <mxPoint x="700" y="820" as="targetPoint" />
          </mxGeometry>
        </mxCell>
        <mxCell id="rf6OLHSVhCsBGT3hQJzp-202" value="PRODUCT" style="rounded=0;whiteSpace=wrap;html=1;" parent="1" vertex="1">
          <mxGeometry x="522" y="746.6700000000001" width="120" height="60" as="geometry" />
        </mxCell>
        <mxCell id="rf6OLHSVhCsBGT3hQJzp-203" style="edgeStyle=none;rounded=0;orthogonalLoop=1;jettySize=auto;html=1;exitX=0;exitY=0.5;exitDx=0;exitDy=0;entryX=0.5;entryY=0;entryDx=0;entryDy=0;endArrow=none;" parent="1" source="rf6OLHSVhCsBGT3hQJzp-206" target="rf6OLHSVhCsBGT3hQJzp-220" edge="1">
          <mxGeometry relative="1" as="geometry">
            <Array as="points">
              <mxPoint x="448" y="573.75" />
            </Array>
          </mxGeometry>
        </mxCell>
        <mxCell id="rf6OLHSVhCsBGT3hQJzp-204" style="edgeStyle=none;rounded=0;orthogonalLoop=1;jettySize=auto;html=1;exitX=0.5;exitY=0;exitDx=0;exitDy=0;entryX=0.5;entryY=1;entryDx=0;entryDy=0;endArrow=none;" parent="1" source="rf6OLHSVhCsBGT3hQJzp-206" target="rf6OLHSVhCsBGT3hQJzp-226" edge="1">
          <mxGeometry relative="1" as="geometry" />
        </mxCell>
        <mxCell id="rf6OLHSVhCsBGT3hQJzp-205" style="edgeStyle=none;rounded=0;orthogonalLoop=1;jettySize=auto;html=1;exitX=0.5;exitY=0;exitDx=0;exitDy=0;entryX=0.5;entryY=1;entryDx=0;entryDy=0;endArrow=none;" parent="1" source="rf6OLHSVhCsBGT3hQJzp-206" target="rf6OLHSVhCsBGT3hQJzp-290" edge="1">
          <mxGeometry relative="1" as="geometry" />
        </mxCell>
        <mxCell id="rf6OLHSVhCsBGT3hQJzp-206" value="SHOP" style="rounded=0;whiteSpace=wrap;html=1;" parent="1" vertex="1">
          <mxGeometry x="522" y="543.5" width="120" height="60" as="geometry" />
        </mxCell>
        <mxCell id="rf6OLHSVhCsBGT3hQJzp-207" value="SELLS" style="rhombus;whiteSpace=wrap;html=1;" parent="1" vertex="1">
          <mxGeometry x="542" y="643.5" width="80" height="80" as="geometry" />
        </mxCell>
        <mxCell id="rf6OLHSVhCsBGT3hQJzp-208" value="" style="endArrow=none;html=1;entryX=0.5;entryY=1;entryDx=0;entryDy=0;exitX=0.5;exitY=0;exitDx=0;exitDy=0;" parent="1" source="rf6OLHSVhCsBGT3hQJzp-207" target="rf6OLHSVhCsBGT3hQJzp-206" edge="1">
          <mxGeometry width="50" height="50" relative="1" as="geometry">
            <mxPoint x="562" y="633.5" as="sourcePoint" />
            <mxPoint x="612" y="583.5" as="targetPoint" />
          </mxGeometry>
        </mxCell>
        <mxCell id="rf6OLHSVhCsBGT3hQJzp-209" value="" style="endArrow=none;html=1;entryX=0.5;entryY=1;entryDx=0;entryDy=0;exitX=0.5;exitY=0;exitDx=0;exitDy=0;" parent="1" source="rf6OLHSVhCsBGT3hQJzp-202" target="rf6OLHSVhCsBGT3hQJzp-207" edge="1">
          <mxGeometry width="50" height="50" relative="1" as="geometry">
            <mxPoint x="572" y="753.5" as="sourcePoint" />
            <mxPoint x="622" y="703.5" as="targetPoint" />
          </mxGeometry>
        </mxCell>
        <mxCell id="rf6OLHSVhCsBGT3hQJzp-210" value="&lt;font&gt;BELONGS_TO&lt;/font&gt;" style="rhombus;whiteSpace=wrap;html=1;" parent="1" vertex="1">
          <mxGeometry x="527" y="889.13" width="110" height="76.62" as="geometry" />
        </mxCell>
        <mxCell id="rf6OLHSVhCsBGT3hQJzp-211" style="edgeStyle=none;rounded=0;orthogonalLoop=1;jettySize=auto;html=1;exitX=1;exitY=0.5;exitDx=0;exitDy=0;entryX=0;entryY=0.5;entryDx=0;entryDy=0;endArrow=none;" parent="1" source="rf6OLHSVhCsBGT3hQJzp-213" target="rf6OLHSVhCsBGT3hQJzp-237" edge="1">
          <mxGeometry relative="1" as="geometry" />
        </mxCell>
        <mxCell id="rf6OLHSVhCsBGT3hQJzp-212" style="edgeStyle=none;rounded=0;orthogonalLoop=1;jettySize=auto;html=1;exitX=1;exitY=0.5;exitDx=0;exitDy=0;entryX=0;entryY=0.5;entryDx=0;entryDy=0;endArrow=none;" parent="1" source="rf6OLHSVhCsBGT3hQJzp-213" target="rf6OLHSVhCsBGT3hQJzp-238" edge="1">
          <mxGeometry relative="1" as="geometry" />
        </mxCell>
        <mxCell id="rf6OLHSVhCsBGT3hQJzp-213" value="PRODUCT_TYPE" style="rounded=0;whiteSpace=wrap;html=1;" parent="1" vertex="1">
          <mxGeometry x="522" y="1019.13" width="120" height="60" as="geometry" />
        </mxCell>
        <mxCell id="rf6OLHSVhCsBGT3hQJzp-214" style="edgeStyle=none;rounded=0;orthogonalLoop=1;jettySize=auto;html=1;exitX=0;exitY=0.5;exitDx=0;exitDy=0;entryX=0.001;entryY=0.847;entryDx=0;entryDy=0;endArrow=none;entryPerimeter=0;" parent="1" source="rf6OLHSVhCsBGT3hQJzp-216" target="rf6OLHSVhCsBGT3hQJzp-213" edge="1">
          <mxGeometry relative="1" as="geometry">
            <Array as="points">
              <mxPoint x="488" y="1165.38" />
              <mxPoint x="488" y="1070" />
            </Array>
          </mxGeometry>
        </mxCell>
        <mxCell id="rf6OLHSVhCsBGT3hQJzp-215" style="edgeStyle=orthogonalEdgeStyle;rounded=0;orthogonalLoop=1;jettySize=auto;html=1;exitX=1;exitY=0.5;exitDx=0;exitDy=0;" parent="1" source="rf6OLHSVhCsBGT3hQJzp-216" edge="1">
          <mxGeometry relative="1" as="geometry">
            <mxPoint x="642" y="1070" as="targetPoint" />
            <Array as="points">
              <mxPoint x="672" y="1165" />
              <mxPoint x="672" y="1070" />
              <mxPoint x="642" y="1070" />
            </Array>
          </mxGeometry>
        </mxCell>
        <mxCell id="rf6OLHSVhCsBGT3hQJzp-216" value="&lt;font&gt;HIERARCHY&lt;/font&gt;" style="rhombus;whiteSpace=wrap;html=1;" parent="1" vertex="1">
          <mxGeometry x="538" y="1120.13" width="90" height="90" as="geometry" />
        </mxCell>
        <mxCell id="rf6OLHSVhCsBGT3hQJzp-217" value="Child" style="text;html=1;align=center;verticalAlign=middle;resizable=0;points=[];autosize=1;strokeColor=none;fillColor=none;" parent="1" vertex="1">
          <mxGeometry x="438" y="1099.13" width="40" height="20" as="geometry" />
        </mxCell>
        <mxCell id="rf6OLHSVhCsBGT3hQJzp-218" value="Parent&lt;br&gt;" style="text;html=1;align=center;verticalAlign=middle;resizable=0;points=[];autosize=1;strokeColor=none;fillColor=none;" parent="1" vertex="1">
          <mxGeometry x="674" y="1099.13" width="50" height="20" as="geometry" />
        </mxCell>
        <mxCell id="rf6OLHSVhCsBGT3hQJzp-219" style="edgeStyle=none;rounded=0;orthogonalLoop=1;jettySize=auto;html=1;exitX=0.5;exitY=1;exitDx=0;exitDy=0;entryX=0;entryY=0.5;entryDx=0;entryDy=0;endArrow=none;" parent="1" source="rf6OLHSVhCsBGT3hQJzp-220" target="rf6OLHSVhCsBGT3hQJzp-213" edge="1">
          <mxGeometry relative="1" as="geometry">
            <Array as="points">
              <mxPoint x="448" y="1049.38" />
            </Array>
          </mxGeometry>
        </mxCell>
        <mxCell id="rf6OLHSVhCsBGT3hQJzp-220" value="RESTRICTED_TO" style="rhombus;whiteSpace=wrap;html=1;" parent="1" vertex="1">
          <mxGeometry x="388" y="880.82" width="120" height="96.62" as="geometry" />
        </mxCell>
        <mxCell id="rf6OLHSVhCsBGT3hQJzp-221" value="&amp;gt;=1&lt;br&gt;" style="text;html=1;align=center;verticalAlign=middle;resizable=0;points=[];autosize=1;strokeColor=none;fillColor=none;" parent="1" vertex="1">
          <mxGeometry x="-440.5" y="450" width="40" height="20" as="geometry" />
        </mxCell>
        <mxCell id="rf6OLHSVhCsBGT3hQJzp-222" value="Username" style="ellipse;whiteSpace=wrap;html=1;" parent="1" vertex="1">
          <mxGeometry x="-490.5" y="323.5" width="70" height="30" as="geometry" />
        </mxCell>
        <mxCell id="rf6OLHSVhCsBGT3hQJzp-223" value="Email" style="ellipse;whiteSpace=wrap;html=1;" parent="1" vertex="1">
          <mxGeometry x="-393" y="335.75" width="60" height="20" as="geometry" />
        </mxCell>
        <mxCell id="rf6OLHSVhCsBGT3hQJzp-224" value="&lt;u&gt;Card_num&lt;/u&gt;" style="ellipse;whiteSpace=wrap;html=1;" parent="1" vertex="1">
          <mxGeometry x="-880" y="353.5" width="70" height="40" as="geometry" />
        </mxCell>
        <mxCell id="rf6OLHSVhCsBGT3hQJzp-226" value="&lt;u&gt;Id&lt;/u&gt;" style="ellipse;whiteSpace=wrap;html=1;rounded=0;" parent="1" vertex="1">
          <mxGeometry x="522" y="470" width="40" height="27.75" as="geometry" />
        </mxCell>
        <mxCell id="rf6OLHSVhCsBGT3hQJzp-227" value="Name" style="ellipse;whiteSpace=wrap;html=1;" parent="1" vertex="1">
          <mxGeometry x="724" y="547.75" width="54.5" height="30.75" as="geometry" />
        </mxCell>
        <mxCell id="rf6OLHSVhCsBGT3hQJzp-228" value="Color" style="ellipse;whiteSpace=wrap;html=1;" parent="1" vertex="1">
          <mxGeometry x="785.25" y="621.12" width="40" height="27.75" as="geometry" />
        </mxCell>
        <mxCell id="rf6OLHSVhCsBGT3hQJzp-229" value="Description" style="ellipse;whiteSpace=wrap;html=1;" parent="1" vertex="1">
          <mxGeometry x="780.25" y="719.75" width="70" height="40" as="geometry" />
        </mxCell>
        <mxCell id="rf6OLHSVhCsBGT3hQJzp-230" value="Size" style="ellipse;whiteSpace=wrap;html=1;" parent="1" vertex="1">
          <mxGeometry x="761.25" y="654.62" width="40" height="27.75" as="geometry" />
        </mxCell>
        <mxCell id="rf6OLHSVhCsBGT3hQJzp-231" value="&lt;u&gt;Id&lt;/u&gt;" style="ellipse;whiteSpace=wrap;html=1;" parent="1" vertex="1">
          <mxGeometry x="750.75" y="592" width="40.5" height="27.75" as="geometry" />
        </mxCell>
        <mxCell id="rf6OLHSVhCsBGT3hQJzp-232" value="" style="endArrow=none;html=1;entryX=0;entryY=0.5;entryDx=0;entryDy=0;exitX=1;exitY=0.5;exitDx=0;exitDy=0;" parent="1" source="rf6OLHSVhCsBGT3hQJzp-202" target="rf6OLHSVhCsBGT3hQJzp-227" edge="1">
          <mxGeometry width="50" height="50" relative="1" as="geometry">
            <mxPoint x="602" y="773.5" as="sourcePoint" />
            <mxPoint x="652" y="723.5" as="targetPoint" />
          </mxGeometry>
        </mxCell>
        <mxCell id="rf6OLHSVhCsBGT3hQJzp-233" value="" style="endArrow=none;html=1;exitX=1;exitY=0.5;exitDx=0;exitDy=0;entryX=0;entryY=0.5;entryDx=0;entryDy=0;" parent="1" source="rf6OLHSVhCsBGT3hQJzp-202" target="rf6OLHSVhCsBGT3hQJzp-231" edge="1">
          <mxGeometry width="50" height="50" relative="1" as="geometry">
            <mxPoint x="702" y="793.5" as="sourcePoint" />
            <mxPoint x="752" y="743.5" as="targetPoint" />
          </mxGeometry>
        </mxCell>
        <mxCell id="rf6OLHSVhCsBGT3hQJzp-234" value="" style="endArrow=none;html=1;entryX=0;entryY=0.5;entryDx=0;entryDy=0;exitX=1;exitY=0.5;exitDx=0;exitDy=0;" parent="1" source="rf6OLHSVhCsBGT3hQJzp-202" target="rf6OLHSVhCsBGT3hQJzp-228" edge="1">
          <mxGeometry width="50" height="50" relative="1" as="geometry">
            <mxPoint x="642" y="783.5" as="sourcePoint" />
            <mxPoint x="792" y="693.5" as="targetPoint" />
          </mxGeometry>
        </mxCell>
        <mxCell id="rf6OLHSVhCsBGT3hQJzp-235" value="" style="endArrow=none;html=1;entryX=0;entryY=1;entryDx=0;entryDy=0;exitX=1;exitY=0.5;exitDx=0;exitDy=0;" parent="1" source="rf6OLHSVhCsBGT3hQJzp-202" target="rf6OLHSVhCsBGT3hQJzp-230" edge="1">
          <mxGeometry width="50" height="50" relative="1" as="geometry">
            <mxPoint x="652" y="793.5" as="sourcePoint" />
            <mxPoint x="752" y="758.5" as="targetPoint" />
          </mxGeometry>
        </mxCell>
        <mxCell id="rf6OLHSVhCsBGT3hQJzp-236" value="" style="endArrow=none;html=1;exitX=1;exitY=0.5;exitDx=0;exitDy=0;" parent="1" source="rf6OLHSVhCsBGT3hQJzp-202" target="rf6OLHSVhCsBGT3hQJzp-229" edge="1">
          <mxGeometry width="50" height="50" relative="1" as="geometry">
            <mxPoint x="652" y="783.5" as="sourcePoint" />
            <mxPoint x="819.322330470336" y="759.1066017177984" as="targetPoint" />
          </mxGeometry>
        </mxCell>
        <mxCell id="rf6OLHSVhCsBGT3hQJzp-237" value="&lt;u&gt;Id&lt;/u&gt;" style="ellipse;whiteSpace=wrap;html=1;" parent="1" vertex="1">
          <mxGeometry x="688" y="985.75" width="44" height="23.38" as="geometry" />
        </mxCell>
        <mxCell id="rf6OLHSVhCsBGT3hQJzp-238" value="Description" style="ellipse;whiteSpace=wrap;html=1;" parent="1" vertex="1">
          <mxGeometry x="702.5" y="1017.88" width="80" height="40" as="geometry" />
        </mxCell>
        <mxCell id="rf6OLHSVhCsBGT3hQJzp-241" style="edgeStyle=orthogonalEdgeStyle;rounded=0;orthogonalLoop=1;jettySize=auto;html=1;endArrow=none;endFill=0;" parent="1" target="rf6OLHSVhCsBGT3hQJzp-339" edge="1">
          <mxGeometry relative="1" as="geometry">
            <mxPoint x="-248" y="782.75" as="sourcePoint" />
          </mxGeometry>
        </mxCell>
        <mxCell id="rf6OLHSVhCsBGT3hQJzp-242" style="edgeStyle=none;orthogonalLoop=1;jettySize=auto;html=1;exitX=0;exitY=0.5;exitDx=0;exitDy=0;entryX=1;entryY=0.5;entryDx=0;entryDy=0;endArrow=none;" parent="1" source="rf6OLHSVhCsBGT3hQJzp-244" target="rf6OLHSVhCsBGT3hQJzp-354" edge="1">
          <mxGeometry relative="1" as="geometry" />
        </mxCell>
        <mxCell id="rf6OLHSVhCsBGT3hQJzp-244" value="ORDER" style="rounded=0;whiteSpace=wrap;html=1;" parent="1" vertex="1">
          <mxGeometry x="-368" y="755.75" width="120" height="60" as="geometry" />
        </mxCell>
        <mxCell id="rf6OLHSVhCsBGT3hQJzp-245" value="PLACES" style="rhombus;whiteSpace=wrap;html=1;" parent="1" vertex="1">
          <mxGeometry x="-343" y="563.75" width="70" height="60" as="geometry" />
        </mxCell>
        <mxCell id="rf6OLHSVhCsBGT3hQJzp-246" value="" style="endArrow=none;html=1;exitX=0.5;exitY=0;exitDx=0;exitDy=0;entryX=0.5;entryY=1;entryDx=0;entryDy=0;" parent="1" source="rf6OLHSVhCsBGT3hQJzp-244" target="rf6OLHSVhCsBGT3hQJzp-245" edge="1">
          <mxGeometry width="50" height="50" relative="1" as="geometry">
            <mxPoint x="-328" y="805.75" as="sourcePoint" />
            <mxPoint x="-278" y="755.75" as="targetPoint" />
          </mxGeometry>
        </mxCell>
        <mxCell id="rf6OLHSVhCsBGT3hQJzp-247" value="Status" style="ellipse;whiteSpace=wrap;html=1;" parent="1" vertex="1">
          <mxGeometry x="-503" y="791" width="55" height="20" as="geometry" />
        </mxCell>
        <mxCell id="rf6OLHSVhCsBGT3hQJzp-248" value="" style="endArrow=none;html=1;entryX=1;entryY=0.5;entryDx=0;entryDy=0;exitX=0;exitY=0.5;exitDx=0;exitDy=0;" parent="1" source="rf6OLHSVhCsBGT3hQJzp-244" target="rf6OLHSVhCsBGT3hQJzp-247" edge="1">
          <mxGeometry width="50" height="50" relative="1" as="geometry">
            <mxPoint x="-458" y="905.75" as="sourcePoint" />
            <mxPoint x="-408" y="855.75" as="targetPoint" />
          </mxGeometry>
        </mxCell>
        <mxCell id="rf6OLHSVhCsBGT3hQJzp-249" value="&lt;u&gt;Sequence_num&lt;/u&gt;" style="ellipse;whiteSpace=wrap;html=1;" parent="1" vertex="1">
          <mxGeometry x="82" y="626.25" width="100" height="31" as="geometry" />
        </mxCell>
        <mxCell id="rf6OLHSVhCsBGT3hQJzp-250" style="edgeStyle=orthogonalEdgeStyle;rounded=0;orthogonalLoop=1;jettySize=auto;html=1;exitX=1;exitY=0.5;exitDx=0;exitDy=0;endArrow=none;endFill=0;entryX=0;entryY=0.5;entryDx=0;entryDy=0;" parent="1" target="CgsBcJXL7_XnsEFNrrJz-1" edge="1">
          <mxGeometry relative="1" as="geometry">
            <mxPoint x="72" y="777.25" as="sourcePoint" />
            <mxPoint x="322" y="776.6465517241379" as="targetPoint" />
          </mxGeometry>
        </mxCell>
        <mxCell id="rf6OLHSVhCsBGT3hQJzp-251" value="Order_price" style="ellipse;whiteSpace=wrap;html=1;fillColor=#FFFFFF;" parent="1" vertex="1">
          <mxGeometry x="212" y="700.75" width="80" height="28.38" as="geometry" />
        </mxCell>
        <mxCell id="rf6OLHSVhCsBGT3hQJzp-252" style="edgeStyle=none;rounded=0;orthogonalLoop=1;jettySize=auto;html=1;exitX=1;exitY=0.5;exitDx=0;exitDy=0;entryX=0;entryY=0.5;entryDx=0;entryDy=0;endArrow=none;startArrow=none;" parent="1" target="rf6OLHSVhCsBGT3hQJzp-202" edge="1">
          <mxGeometry relative="1" as="geometry">
            <mxPoint x="522" y="776.1199999999999" as="sourcePoint" />
          </mxGeometry>
        </mxCell>
        <mxCell id="rf6OLHSVhCsBGT3hQJzp-254" value="ISSUES" style="rhombus;whiteSpace=wrap;html=1;rounded=0;" parent="1" vertex="1">
          <mxGeometry x="-348" y="889.13" width="80" height="80" as="geometry" />
        </mxCell>
        <mxCell id="rf6OLHSVhCsBGT3hQJzp-255" style="edgeStyle=none;orthogonalLoop=1;jettySize=auto;html=1;exitX=0.5;exitY=1;exitDx=0;exitDy=0;entryX=0.5;entryY=0;entryDx=0;entryDy=0;endArrow=none;" parent="1" source="rf6OLHSVhCsBGT3hQJzp-257" target="rf6OLHSVhCsBGT3hQJzp-264" edge="1">
          <mxGeometry relative="1" as="geometry" />
        </mxCell>
        <mxCell id="rf6OLHSVhCsBGT3hQJzp-256" style="edgeStyle=none;rounded=0;orthogonalLoop=1;jettySize=auto;html=1;exitX=0.5;exitY=1;exitDx=0;exitDy=0;entryX=0.5;entryY=0;entryDx=0;entryDy=0;endArrow=none;" parent="1" source="rf6OLHSVhCsBGT3hQJzp-257" target="rf6OLHSVhCsBGT3hQJzp-263" edge="1">
          <mxGeometry relative="1" as="geometry" />
        </mxCell>
        <mxCell id="rf6OLHSVhCsBGT3hQJzp-257" value="INVOICE" style="whiteSpace=wrap;html=1;rounded=0;" parent="1" vertex="1">
          <mxGeometry x="-535.5" y="1043.6" width="120" height="60" as="geometry" />
        </mxCell>
        <mxCell id="rf6OLHSVhCsBGT3hQJzp-258" style="edgeStyle=none;rounded=0;orthogonalLoop=1;jettySize=auto;html=1;exitX=0.5;exitY=0;exitDx=0;exitDy=0;entryX=0.5;entryY=1;entryDx=0;entryDy=0;endArrow=none;" parent="1" source="rf6OLHSVhCsBGT3hQJzp-259" target="rf6OLHSVhCsBGT3hQJzp-257" edge="1">
          <mxGeometry relative="1" as="geometry" />
        </mxCell>
        <mxCell id="rf6OLHSVhCsBGT3hQJzp-259" value="&lt;u&gt;Number&lt;/u&gt;" style="ellipse;whiteSpace=wrap;html=1;rounded=0;" parent="1" vertex="1">
          <mxGeometry x="-585.25" y="1144" width="62.25" height="35.25" as="geometry" />
        </mxCell>
        <mxCell id="rf6OLHSVhCsBGT3hQJzp-260" value="" style="rounded=0;orthogonalLoop=1;jettySize=auto;html=1;endArrow=none;endFill=0;exitX=1;exitY=0.5;exitDx=0;exitDy=0;" parent="1" source="rf6OLHSVhCsBGT3hQJzp-328" target="rf6OLHSVhCsBGT3hQJzp-265" edge="1">
          <mxGeometry relative="1" as="geometry" />
        </mxCell>
        <mxCell id="rf6OLHSVhCsBGT3hQJzp-261" style="rounded=0;orthogonalLoop=1;jettySize=auto;html=1;exitX=1;exitY=0.5;exitDx=0;exitDy=0;entryX=0;entryY=0;entryDx=0;entryDy=0;endArrow=none;endFill=0;" parent="1" source="rf6OLHSVhCsBGT3hQJzp-328" target="rf6OLHSVhCsBGT3hQJzp-274" edge="1">
          <mxGeometry relative="1" as="geometry" />
        </mxCell>
        <mxCell id="rf6OLHSVhCsBGT3hQJzp-263" value="Status" style="ellipse;whiteSpace=wrap;html=1;rounded=0;" parent="1" vertex="1">
          <mxGeometry x="-480.5" y="1153.13" width="60" height="24" as="geometry" />
        </mxCell>
        <mxCell id="rf6OLHSVhCsBGT3hQJzp-264" value="Date" style="ellipse;whiteSpace=wrap;html=1;rounded=0;" parent="1" vertex="1">
          <mxGeometry x="-521.75" y="1179.25" width="57.5" height="25" as="geometry" />
        </mxCell>
        <mxCell id="rf6OLHSVhCsBGT3hQJzp-265" value="&lt;u&gt;Id&lt;/u&gt;" style="ellipse;whiteSpace=wrap;html=1;rounded=0;fillColor=#FFFFFF;" parent="1" vertex="1">
          <mxGeometry x="-723" y="1149.24" width="35" height="18.5" as="geometry" />
        </mxCell>
        <mxCell id="rf6OLHSVhCsBGT3hQJzp-266" value="" style="edgeStyle=orthogonalEdgeStyle;rounded=0;orthogonalLoop=1;jettySize=auto;html=1;endArrow=none;endFill=0;" parent="1" source="rf6OLHSVhCsBGT3hQJzp-267" target="rf6OLHSVhCsBGT3hQJzp-328" edge="1">
          <mxGeometry relative="1" as="geometry" />
        </mxCell>
        <mxCell id="rf6OLHSVhCsBGT3hQJzp-267" value="&lt;font&gt;MADE_FOR&lt;/font&gt;" style="rhombus;whiteSpace=wrap;html=1;rounded=0;" parent="1" vertex="1">
          <mxGeometry x="-730.75" y="1033.99" width="100" height="80" as="geometry" />
        </mxCell>
        <mxCell id="rf6OLHSVhCsBGT3hQJzp-268" style="edgeStyle=none;orthogonalLoop=1;jettySize=auto;html=1;exitX=1;exitY=0.5;exitDx=0;exitDy=0;entryX=0;entryY=0.5;entryDx=0;entryDy=0;endArrow=none;" parent="1" source="rf6OLHSVhCsBGT3hQJzp-271" target="rf6OLHSVhCsBGT3hQJzp-272" edge="1">
          <mxGeometry relative="1" as="geometry" />
        </mxCell>
        <mxCell id="rf6OLHSVhCsBGT3hQJzp-269" style="edgeStyle=none;orthogonalLoop=1;jettySize=auto;html=1;exitX=1;exitY=0.5;exitDx=0;exitDy=0;entryX=0;entryY=0.5;entryDx=0;entryDy=0;endArrow=none;" parent="1" source="rf6OLHSVhCsBGT3hQJzp-271" target="rf6OLHSVhCsBGT3hQJzp-301" edge="1">
          <mxGeometry relative="1" as="geometry">
            <mxPoint x="252" y="1039.755" as="targetPoint" />
          </mxGeometry>
        </mxCell>
        <mxCell id="rf6OLHSVhCsBGT3hQJzp-270" style="edgeStyle=none;orthogonalLoop=1;jettySize=auto;html=1;exitX=1;exitY=0.5;exitDx=0;exitDy=0;entryX=0;entryY=0.5;entryDx=0;entryDy=0;endArrow=none;" parent="1" source="rf6OLHSVhCsBGT3hQJzp-271" target="rf6OLHSVhCsBGT3hQJzp-302" edge="1">
          <mxGeometry relative="1" as="geometry" />
        </mxCell>
        <mxCell id="rf6OLHSVhCsBGT3hQJzp-271" value="SHIPMENT" style="rounded=0;whiteSpace=wrap;html=1;strokeColor=#000000;fillColor=#FFFFFF;" parent="1" vertex="1">
          <mxGeometry x="42" y="1007.88" width="120" height="60" as="geometry" />
        </mxCell>
        <mxCell id="rf6OLHSVhCsBGT3hQJzp-272" value="&lt;u&gt;Id&lt;/u&gt;" style="ellipse;whiteSpace=wrap;html=1;rounded=0;fillColor=#FFFFFF;" parent="1" vertex="1">
          <mxGeometry x="249" y="978.44" width="35" height="25.88" as="geometry" />
        </mxCell>
        <mxCell id="rf6OLHSVhCsBGT3hQJzp-273" style="edgeStyle=orthogonalEdgeStyle;rounded=0;orthogonalLoop=1;jettySize=auto;html=1;exitX=0;exitY=0.5;exitDx=0;exitDy=0;entryX=0;entryY=0.5;entryDx=0;entryDy=0;endArrow=none;endFill=0;" parent="1" source="rf6OLHSVhCsBGT3hQJzp-265" target="rf6OLHSVhCsBGT3hQJzp-265" edge="1">
          <mxGeometry relative="1" as="geometry" />
        </mxCell>
        <mxCell id="rf6OLHSVhCsBGT3hQJzp-274" value="Amount" style="ellipse;whiteSpace=wrap;html=1;strokeColor=#000000;fillColor=#FFFFFF;" parent="1" vertex="1">
          <mxGeometry x="-738" y="1241.74" width="60" height="30" as="geometry" />
        </mxCell>
        <mxCell id="rf6OLHSVhCsBGT3hQJzp-279" value="Password" style="ellipse;whiteSpace=wrap;html=1;" parent="1" vertex="1">
          <mxGeometry x="-333" y="305.75" width="70" height="30" as="geometry" />
        </mxCell>
        <mxCell id="rf6OLHSVhCsBGT3hQJzp-280" value="Full_name" style="ellipse;whiteSpace=wrap;html=1;" parent="1" vertex="1">
          <mxGeometry x="-268" y="330" width="65" height="30" as="geometry" />
        </mxCell>
        <mxCell id="rf6OLHSVhCsBGT3hQJzp-281" value="Address" style="ellipse;whiteSpace=wrap;html=1;" parent="1" vertex="1">
          <mxGeometry x="-188" y="300" width="60" height="30" as="geometry" />
        </mxCell>
        <mxCell id="rf6OLHSVhCsBGT3hQJzp-282" value="Phone_num" style="ellipse;whiteSpace=wrap;html=1;" parent="1" vertex="1">
          <mxGeometry x="-173" y="353.5" width="80" height="40" as="geometry" />
        </mxCell>
        <mxCell id="rf6OLHSVhCsBGT3hQJzp-283" value="" style="group;" parent="1" vertex="1" connectable="0">
          <mxGeometry x="-318" y="815.75" width="20" height="10" as="geometry" />
        </mxCell>
        <mxCell id="rf6OLHSVhCsBGT3hQJzp-284" value="" style="edgeStyle=orthogonalEdgeStyle;rounded=0;orthogonalLoop=1;jettySize=auto;html=1;endArrow=none;endFill=0;" parent="rf6OLHSVhCsBGT3hQJzp-283" source="rf6OLHSVhCsBGT3hQJzp-244" target="rf6OLHSVhCsBGT3hQJzp-254" edge="1">
          <mxGeometry relative="1" as="geometry" />
        </mxCell>
        <mxCell id="rf6OLHSVhCsBGT3hQJzp-285" value="" style="shape=requiredInterface;html=1;verticalLabelPosition=bottom;rotation=-90;" parent="rf6OLHSVhCsBGT3hQJzp-283" vertex="1">
          <mxGeometry x="5" y="-5" width="10" height="20" as="geometry" />
        </mxCell>
        <mxCell id="rf6OLHSVhCsBGT3hQJzp-286" value="" style="group;" parent="1" vertex="1" connectable="0">
          <mxGeometry x="-318" y="500" width="20" height="10" as="geometry" />
        </mxCell>
        <mxCell id="rf6OLHSVhCsBGT3hQJzp-287" value="" style="group;" parent="rf6OLHSVhCsBGT3hQJzp-286" vertex="1" connectable="0">
          <mxGeometry width="20" height="10" as="geometry" />
        </mxCell>
        <mxCell id="rf6OLHSVhCsBGT3hQJzp-288" value="" style="shape=requiredInterface;html=1;verticalLabelPosition=bottom;rotation=-90;" parent="rf6OLHSVhCsBGT3hQJzp-287" vertex="1">
          <mxGeometry x="5" y="-5" width="10" height="20" as="geometry" />
        </mxCell>
        <mxCell id="rf6OLHSVhCsBGT3hQJzp-289" style="edgeStyle=none;orthogonalLoop=1;jettySize=auto;html=1;exitX=1;exitY=0.5;exitDx=0;exitDy=0;exitPerimeter=0;entryX=0.5;entryY=0;entryDx=0;entryDy=0;endArrow=none;" parent="1" source="rf6OLHSVhCsBGT3hQJzp-288" target="rf6OLHSVhCsBGT3hQJzp-245" edge="1">
          <mxGeometry relative="1" as="geometry" />
        </mxCell>
        <mxCell id="rf6OLHSVhCsBGT3hQJzp-290" value="Name" style="ellipse;whiteSpace=wrap;html=1;rounded=0;" parent="1" vertex="1">
          <mxGeometry x="602" y="470" width="50" height="27.75" as="geometry" />
        </mxCell>
        <mxCell id="rf6OLHSVhCsBGT3hQJzp-291" value="Price" style="ellipse;whiteSpace=wrap;html=1;" parent="1" vertex="1">
          <mxGeometry x="805.25" y="682.37" width="40" height="27.75" as="geometry" />
        </mxCell>
        <mxCell id="rf6OLHSVhCsBGT3hQJzp-292" value="" style="group;" parent="1" vertex="1" connectable="0">
          <mxGeometry x="572" y="1009.13" width="20" height="10" as="geometry" />
        </mxCell>
        <mxCell id="rf6OLHSVhCsBGT3hQJzp-293" value="" style="endArrow=none;html=1;exitX=0.5;exitY=0;exitDx=0;exitDy=0;entryX=0.5;entryY=1;entryDx=0;entryDy=0;" parent="rf6OLHSVhCsBGT3hQJzp-292" source="rf6OLHSVhCsBGT3hQJzp-213" target="rf6OLHSVhCsBGT3hQJzp-210" edge="1">
          <mxGeometry width="50" height="50" relative="1" as="geometry">
            <mxPoint x="-120" y="20" as="sourcePoint" />
            <mxPoint x="20" y="-20" as="targetPoint" />
          </mxGeometry>
        </mxCell>
        <mxCell id="rf6OLHSVhCsBGT3hQJzp-294" value="" style="shape=requiredInterface;html=1;verticalLabelPosition=bottom;rotation=90;" parent="rf6OLHSVhCsBGT3hQJzp-292" vertex="1">
          <mxGeometry x="5" y="-5" width="10" height="20" as="geometry" />
        </mxCell>
        <mxCell id="rf6OLHSVhCsBGT3hQJzp-295" value="Product_unit_price" style="ellipse;whiteSpace=wrap;html=1;" parent="1" vertex="1">
          <mxGeometry x="-58" y="696.94" width="110" height="36" as="geometry" />
        </mxCell>
        <mxCell id="rf6OLHSVhCsBGT3hQJzp-296" value="Quantity" style="ellipse;whiteSpace=wrap;html=1;" parent="1" vertex="1">
          <mxGeometry x="22" y="657.25" width="60" height="25" as="geometry" />
        </mxCell>
        <mxCell id="rf6OLHSVhCsBGT3hQJzp-297" value="Status" style="ellipse;whiteSpace=wrap;html=1;" parent="1" vertex="1">
          <mxGeometry x="142" y="686.75" width="50" height="25" as="geometry" />
        </mxCell>
        <mxCell id="rf6OLHSVhCsBGT3hQJzp-298" value="" style="group;rotation=-180;" parent="1" vertex="1" connectable="0">
          <mxGeometry x="-548" y="1065.75" width="10" height="20" as="geometry" />
        </mxCell>
        <mxCell id="rf6OLHSVhCsBGT3hQJzp-299" value="" style="edgeStyle=orthogonalEdgeStyle;rounded=0;orthogonalLoop=1;jettySize=auto;html=1;endArrow=none;endFill=0;" parent="rf6OLHSVhCsBGT3hQJzp-298" source="rf6OLHSVhCsBGT3hQJzp-257" target="rf6OLHSVhCsBGT3hQJzp-267" edge="1">
          <mxGeometry relative="1" as="geometry" />
        </mxCell>
        <mxCell id="rf6OLHSVhCsBGT3hQJzp-300" value="" style="shape=requiredInterface;html=1;verticalLabelPosition=bottom;rotation=-360;" parent="rf6OLHSVhCsBGT3hQJzp-298" vertex="1">
          <mxGeometry width="10" height="20" as="geometry" />
        </mxCell>
        <mxCell id="rf6OLHSVhCsBGT3hQJzp-301" value="Date" style="ellipse;whiteSpace=wrap;html=1;rounded=0;fillColor=#FFFFFF;" parent="1" vertex="1">
          <mxGeometry x="247" y="1024.76" width="45" height="26.25" as="geometry" />
        </mxCell>
        <mxCell id="rf6OLHSVhCsBGT3hQJzp-302" value="Tracking_num" style="ellipse;whiteSpace=wrap;html=1;rounded=0;fillColor=#FFFFFF;" parent="1" vertex="1">
          <mxGeometry x="212" y="1067.88" width="90" height="42.5" as="geometry" />
        </mxCell>
        <mxCell id="rf6OLHSVhCsBGT3hQJzp-305" value="" style="group;" parent="1" vertex="1" connectable="0">
          <mxGeometry x="-483.1684057537035" y="1032.9040508978796" width="20.33681150740692" height="10.691898204240943" as="geometry" />
        </mxCell>
        <mxCell id="rf6OLHSVhCsBGT3hQJzp-306" value="" style="edgeStyle=orthogonalEdgeStyle;rounded=0;orthogonalLoop=1;jettySize=auto;html=1;endArrow=none;endFill=0;" parent="rf6OLHSVhCsBGT3hQJzp-305" source="rf6OLHSVhCsBGT3hQJzp-254" target="rf6OLHSVhCsBGT3hQJzp-257" edge="1">
          <mxGeometry relative="1" as="geometry" />
        </mxCell>
        <mxCell id="rf6OLHSVhCsBGT3hQJzp-307" value="" style="shape=requiredInterface;html=1;verticalLabelPosition=bottom;rotation=92;" parent="rf6OLHSVhCsBGT3hQJzp-305" vertex="1">
          <mxGeometry x="5.1684057537034604" y="-4.654050897879529" width="10" height="20" as="geometry" />
        </mxCell>
        <mxCell id="rf6OLHSVhCsBGT3hQJzp-323" value="" style="group;" parent="1" vertex="1" connectable="0">
          <mxGeometry x="-545.8586645371863" y="1032.6429730755126" width="16.237329074372468" height="75.6070269244874" as="geometry" />
        </mxCell>
        <mxCell id="rf6OLHSVhCsBGT3hQJzp-324" value="" style="group;rotation=110;" parent="rf6OLHSVhCsBGT3hQJzp-323" vertex="1" connectable="0">
          <mxGeometry x="-1.881335462813766" y="6.1070269244874" width="20" height="10" as="geometry" />
        </mxCell>
        <mxCell id="rf6OLHSVhCsBGT3hQJzp-325" style="edgeStyle=none;orthogonalLoop=1;jettySize=auto;html=1;exitX=0.5;exitY=0;exitDx=0;exitDy=0;entryX=0.5;entryY=1;entryDx=0;entryDy=0;fontColor=#007FFF;endArrow=none;" parent="rf6OLHSVhCsBGT3hQJzp-324" edge="1">
          <mxGeometry relative="1" as="geometry" />
        </mxCell>
        <mxCell id="rf6OLHSVhCsBGT3hQJzp-326" value="" style="group;rotation=110;" parent="rf6OLHSVhCsBGT3hQJzp-324" vertex="1" connectable="0">
          <mxGeometry width="20" height="10" as="geometry" />
        </mxCell>
        <mxCell id="rf6OLHSVhCsBGT3hQJzp-327" value="" style="edgeStyle=orthogonalEdgeStyle;rounded=0;orthogonalLoop=1;jettySize=auto;html=1;endArrow=none;endFill=0;" parent="rf6OLHSVhCsBGT3hQJzp-326" edge="1">
          <mxGeometry relative="1" as="geometry" />
        </mxCell>
        <mxCell id="rf6OLHSVhCsBGT3hQJzp-328" value="PAYMENT" style="rounded=0;whiteSpace=wrap;html=1;strokeColor=#000000;fillColor=#FFFFFF;" parent="rf6OLHSVhCsBGT3hQJzp-323" vertex="1">
          <mxGeometry x="-464.14133546281374" y="11.3470269244874" width="120" height="60" as="geometry" />
        </mxCell>
        <mxCell id="rf6OLHSVhCsBGT3hQJzp-329" style="edgeStyle=orthogonalEdgeStyle;rounded=0;orthogonalLoop=1;jettySize=auto;html=1;exitX=0.5;exitY=1;exitDx=0;exitDy=0;endArrow=none;endFill=0;" parent="1" source="rf6OLHSVhCsBGT3hQJzp-337" target="rf6OLHSVhCsBGT3hQJzp-340" edge="1">
          <mxGeometry relative="1" as="geometry" />
        </mxCell>
        <mxCell id="rf6OLHSVhCsBGT3hQJzp-330" style="edgeStyle=none;rounded=0;orthogonalLoop=1;jettySize=auto;html=1;exitX=0.5;exitY=0;exitDx=0;exitDy=0;entryX=0.5;entryY=1;entryDx=0;entryDy=0;endArrow=none;" parent="1" source="rf6OLHSVhCsBGT3hQJzp-337" target="rf6OLHSVhCsBGT3hQJzp-295" edge="1">
          <mxGeometry relative="1" as="geometry" />
        </mxCell>
        <mxCell id="rf6OLHSVhCsBGT3hQJzp-331" style="edgeStyle=none;rounded=0;orthogonalLoop=1;jettySize=auto;html=1;exitX=0.5;exitY=0;exitDx=0;exitDy=0;entryX=0.5;entryY=1;entryDx=0;entryDy=0;endArrow=none;" parent="1" source="rf6OLHSVhCsBGT3hQJzp-337" target="rf6OLHSVhCsBGT3hQJzp-296" edge="1">
          <mxGeometry relative="1" as="geometry" />
        </mxCell>
        <mxCell id="rf6OLHSVhCsBGT3hQJzp-332" style="edgeStyle=none;rounded=0;orthogonalLoop=1;jettySize=auto;html=1;exitX=0.5;exitY=0;exitDx=0;exitDy=0;entryX=0.5;entryY=1;entryDx=0;entryDy=0;endArrow=none;" parent="1" source="rf6OLHSVhCsBGT3hQJzp-337" target="rf6OLHSVhCsBGT3hQJzp-249" edge="1">
          <mxGeometry relative="1" as="geometry" />
        </mxCell>
        <mxCell id="rf6OLHSVhCsBGT3hQJzp-333" style="edgeStyle=none;rounded=0;orthogonalLoop=1;jettySize=auto;html=1;exitX=0.5;exitY=0;exitDx=0;exitDy=0;entryX=0.5;entryY=1;entryDx=0;entryDy=0;endArrow=none;" parent="1" source="rf6OLHSVhCsBGT3hQJzp-337" target="rf6OLHSVhCsBGT3hQJzp-297" edge="1">
          <mxGeometry relative="1" as="geometry" />
        </mxCell>
        <mxCell id="rf6OLHSVhCsBGT3hQJzp-334" style="edgeStyle=none;rounded=0;orthogonalLoop=1;jettySize=auto;html=1;exitX=0.5;exitY=0;exitDx=0;exitDy=0;entryX=0.5;entryY=1;entryDx=0;entryDy=0;endArrow=none;" parent="1" source="rf6OLHSVhCsBGT3hQJzp-337" target="rf6OLHSVhCsBGT3hQJzp-251" edge="1">
          <mxGeometry relative="1" as="geometry" />
        </mxCell>
        <mxCell id="rf6OLHSVhCsBGT3hQJzp-337" value="ORDER_ITEM" style="shape=ext;margin=3;double=1;whiteSpace=wrap;html=1;align=center;strokeColor=#000000;fillColor=#FFFFFF;" parent="1" vertex="1">
          <mxGeometry x="32" y="759.7499999999999" width="140" height="45" as="geometry" />
        </mxCell>
        <mxCell id="rf6OLHSVhCsBGT3hQJzp-338" style="edgeStyle=none;rounded=0;orthogonalLoop=1;jettySize=auto;html=1;exitX=1;exitY=0.5;exitDx=0;exitDy=0;entryX=0;entryY=0.5;entryDx=0;entryDy=0;endArrow=none;" parent="1" source="rf6OLHSVhCsBGT3hQJzp-339" target="rf6OLHSVhCsBGT3hQJzp-337" edge="1">
          <mxGeometry relative="1" as="geometry" />
        </mxCell>
        <mxCell id="rf6OLHSVhCsBGT3hQJzp-339" value="&lt;font&gt;CONTAINS&lt;/font&gt;" style="shape=rhombus;double=1;perimeter=rhombusPerimeter;whiteSpace=wrap;html=1;align=center;strokeColor=#000000;fillColor=#FFFFFF;" parent="1" vertex="1">
          <mxGeometry x="-188" y="752.62" width="120" height="60" as="geometry" />
        </mxCell>
        <mxCell id="rf6OLHSVhCsBGT3hQJzp-340" value="Sent" style="rhombus;whiteSpace=wrap;html=1;rounded=0;" parent="1" vertex="1">
          <mxGeometry x="62" y="889.13" width="80" height="80" as="geometry" />
        </mxCell>
        <mxCell id="rf6OLHSVhCsBGT3hQJzp-341" value="" style="group;" parent="1" vertex="1" connectable="0">
          <mxGeometry x="-473.1684057537035" y="1042.9040508978796" width="20.33681150740692" height="10.691898204240943" as="geometry" />
        </mxCell>
        <mxCell id="rf6OLHSVhCsBGT3hQJzp-342" value="" style="edgeStyle=orthogonalEdgeStyle;rounded=0;orthogonalLoop=1;jettySize=auto;html=1;endArrow=none;endFill=0;" parent="rf6OLHSVhCsBGT3hQJzp-341" edge="1">
          <mxGeometry relative="1" as="geometry" />
        </mxCell>
        <mxCell id="rf6OLHSVhCsBGT3hQJzp-343" value="" style="shape=requiredInterface;html=1;verticalLabelPosition=bottom;rotation=-178;" parent="1" vertex="1">
          <mxGeometry x="-248" y="773.25" width="10" height="20" as="geometry" />
        </mxCell>
        <mxCell id="rf6OLHSVhCsBGT3hQJzp-344" style="edgeStyle=none;orthogonalLoop=1;jettySize=auto;html=1;exitX=0.5;exitY=1;exitDx=0;exitDy=0;entryX=0.5;entryY=0;entryDx=0;entryDy=0;endArrow=none;" parent="1" source="rf6OLHSVhCsBGT3hQJzp-345" target="rf6OLHSVhCsBGT3hQJzp-197" edge="1">
          <mxGeometry relative="1" as="geometry" />
        </mxCell>
        <mxCell id="rf6OLHSVhCsBGT3hQJzp-345" value="&lt;font color=&quot;#000000&quot;&gt;Bank&lt;/font&gt;" style="ellipse;whiteSpace=wrap;html=1;fontColor=#007FFF;" parent="1" vertex="1">
          <mxGeometry x="-798" y="330" width="60" height="30" as="geometry" />
        </mxCell>
        <mxCell id="rf6OLHSVhCsBGT3hQJzp-346" value="&lt;font color=&quot;#000000&quot;&gt;Date_valid_from&lt;/font&gt;" style="ellipse;whiteSpace=wrap;html=1;fontColor=#007FFF;" parent="1" vertex="1">
          <mxGeometry x="-660.86" y="375" width="97.86" height="45" as="geometry" />
        </mxCell>
        <mxCell id="rf6OLHSVhCsBGT3hQJzp-347" style="edgeStyle=none;orthogonalLoop=1;jettySize=auto;html=1;exitX=0.5;exitY=1;exitDx=0;exitDy=0;entryX=0.5;entryY=0;entryDx=0;entryDy=0;endArrow=none;" parent="1" source="rf6OLHSVhCsBGT3hQJzp-348" target="rf6OLHSVhCsBGT3hQJzp-197" edge="1">
          <mxGeometry relative="1" as="geometry" />
        </mxCell>
        <mxCell id="rf6OLHSVhCsBGT3hQJzp-348" value="&lt;font color=&quot;#000000&quot;&gt;Date_valid_to&lt;/font&gt;" style="ellipse;whiteSpace=wrap;html=1;fontColor=#007FFF;" parent="1" vertex="1">
          <mxGeometry x="-738" y="350" width="83.93" height="40" as="geometry" />
        </mxCell>
        <mxCell id="rf6OLHSVhCsBGT3hQJzp-349" value="" style="group;" parent="1" vertex="1" connectable="0">
          <mxGeometry x="-377.68" y="460" width="10" height="20" as="geometry" />
        </mxCell>
        <mxCell id="rf6OLHSVhCsBGT3hQJzp-350" style="edgeStyle=none;orthogonalLoop=1;jettySize=auto;html=1;exitX=1;exitY=0.5;exitDx=0;exitDy=0;entryX=0;entryY=0.5;entryDx=0;entryDy=0;endArrow=none;" parent="rf6OLHSVhCsBGT3hQJzp-349" source="rf6OLHSVhCsBGT3hQJzp-192" target="rf6OLHSVhCsBGT3hQJzp-190" edge="1">
          <mxGeometry relative="1" as="geometry" />
        </mxCell>
        <mxCell id="rf6OLHSVhCsBGT3hQJzp-351" value="" style="shape=requiredInterface;html=1;verticalLabelPosition=bottom;rotation=0;" parent="rf6OLHSVhCsBGT3hQJzp-349" vertex="1">
          <mxGeometry width="10" height="20" as="geometry" />
        </mxCell>
        <mxCell id="rf6OLHSVhCsBGT3hQJzp-352" style="edgeStyle=none;orthogonalLoop=1;jettySize=auto;html=1;exitX=1;exitY=0.5;exitDx=0;exitDy=0;entryX=0;entryY=0.5;entryDx=0;entryDy=0;endArrow=none;" parent="1" source="rf6OLHSVhCsBGT3hQJzp-353" target="rf6OLHSVhCsBGT3hQJzp-244" edge="1">
          <mxGeometry relative="1" as="geometry" />
        </mxCell>
        <mxCell id="rf6OLHSVhCsBGT3hQJzp-353" value="Date" style="ellipse;whiteSpace=wrap;html=1;" parent="1" vertex="1">
          <mxGeometry x="-490.5" y="763.5" width="45" height="17.5" as="geometry" />
        </mxCell>
        <mxCell id="rf6OLHSVhCsBGT3hQJzp-354" value="&lt;u&gt;Id&lt;/u&gt;" style="ellipse;whiteSpace=wrap;html=1;" parent="1" vertex="1">
          <mxGeometry x="-440.5" y="743.5" width="35" height="20.5" as="geometry" />
        </mxCell>
        <mxCell id="rf6OLHSVhCsBGT3hQJzp-355" value="" style="endArrow=classic;html=1;exitX=0.5;exitY=1;exitDx=0;exitDy=0;entryX=0.5;entryY=0;entryDx=0;entryDy=0;" parent="1" source="rf6OLHSVhCsBGT3hQJzp-340" target="rf6OLHSVhCsBGT3hQJzp-271" edge="1">
          <mxGeometry width="50" height="50" relative="1" as="geometry">
            <mxPoint x="112" y="951.38" as="sourcePoint" />
            <mxPoint x="162" y="901.38" as="targetPoint" />
          </mxGeometry>
        </mxCell>
        <mxCell id="rf6OLHSVhCsBGT3hQJzp-361" value="&amp;gt;=1" style="text;html=1;align=center;verticalAlign=middle;resizable=0;points=[];autosize=1;strokeColor=none;" parent="1" vertex="1">
          <mxGeometry x="-228" y="755.75" width="40" height="20" as="geometry" />
        </mxCell>
        <mxCell id="z3KMsmVYAARsnCi1y5fE-2" style="edgeStyle=orthogonalEdgeStyle;rounded=0;orthogonalLoop=1;jettySize=auto;html=1;exitX=1;exitY=0.5;exitDx=0;exitDy=0;entryX=0;entryY=0.5;entryDx=0;entryDy=0;strokeColor=#000000;" parent="1" source="CgsBcJXL7_XnsEFNrrJz-1" target="rf6OLHSVhCsBGT3hQJzp-202" edge="1">
          <mxGeometry relative="1" as="geometry" />
        </mxCell>
        <mxCell id="CgsBcJXL7_XnsEFNrrJz-1" value="IS" style="rhombus;whiteSpace=wrap;html=1;" parent="1" vertex="1">
          <mxGeometry x="282" y="736.6700000000001" width="120" height="80" as="geometry" />
        </mxCell>
        <mxCell id="CgsBcJXL7_XnsEFNrrJz-5" style="edgeStyle=orthogonalEdgeStyle;rounded=0;orthogonalLoop=1;jettySize=auto;html=1;exitX=0.5;exitY=0;exitDx=0;exitDy=0;entryX=0.5;entryY=1;entryDx=0;entryDy=0;endArrow=none;endFill=0;" parent="1" source="CgsBcJXL7_XnsEFNrrJz-3" target="rf6OLHSVhCsBGT3hQJzp-197" edge="1">
          <mxGeometry relative="1" as="geometry" />
        </mxCell>
        <mxCell id="CgsBcJXL7_XnsEFNrrJz-3" value="PAY_BY" style="rhombus;whiteSpace=wrap;html=1;" parent="1" vertex="1">
          <mxGeometry x="-833" y="713.75" width="80" height="80" as="geometry" />
        </mxCell>
        <mxCell id="CgsBcJXL7_XnsEFNrrJz-4" style="edgeStyle=orthogonalEdgeStyle;rounded=0;orthogonalLoop=1;jettySize=auto;html=1;exitX=0.5;exitY=0;exitDx=0;exitDy=0;entryX=0.5;entryY=1;entryDx=0;entryDy=0;endArrow=none;endFill=0;" parent="1" source="rf6OLHSVhCsBGT3hQJzp-328" target="CgsBcJXL7_XnsEFNrrJz-3" edge="1">
          <mxGeometry relative="1" as="geometry" />
        </mxCell>
        <mxCell id="CgsBcJXL7_XnsEFNrrJz-17" value="" style="shape=requiredInterface;html=1;verticalLabelPosition=bottom;rotation=-90;" parent="1" vertex="1">
          <mxGeometry x="577" y="599.5" width="10" height="20" as="geometry" />
        </mxCell>
        <mxCell id="CgsBcJXL7_XnsEFNrrJz-18" value="" style="group;" parent="1" vertex="1" connectable="0">
          <mxGeometry x="-710.75" y="502" width="20" height="10" as="geometry" />
        </mxCell>
        <mxCell id="CgsBcJXL7_XnsEFNrrJz-19" value="" style="group;" parent="CgsBcJXL7_XnsEFNrrJz-18" vertex="1" connectable="0">
          <mxGeometry width="20" height="10" as="geometry" />
        </mxCell>
        <mxCell id="CgsBcJXL7_XnsEFNrrJz-20" value="" style="shape=requiredInterface;html=1;verticalLabelPosition=bottom;rotation=-90;" parent="CgsBcJXL7_XnsEFNrrJz-19" vertex="1">
          <mxGeometry x="5" y="-5" width="10" height="20" as="geometry" />
        </mxCell>
        <mxCell id="bHLAxbNGQcejUqIh85Ex-8" style="edgeStyle=none;orthogonalLoop=1;jettySize=auto;html=1;exitX=0.5;exitY=1;exitDx=0;exitDy=0;entryX=0.5;entryY=0;entryDx=0;entryDy=0;endArrow=none;" edge="1" parent="1" source="bHLAxbNGQcejUqIh85Ex-5" target="bHLAxbNGQcejUqIh85Ex-7">
          <mxGeometry relative="1" as="geometry" />
        </mxCell>
        <mxCell id="bHLAxbNGQcejUqIh85Ex-12" style="edgeStyle=none;orthogonalLoop=1;jettySize=auto;html=1;exitX=0.5;exitY=1;exitDx=0;exitDy=0;entryX=0.5;entryY=0;entryDx=0;entryDy=0;endArrow=none;" edge="1" parent="1" source="bHLAxbNGQcejUqIh85Ex-5" target="bHLAxbNGQcejUqIh85Ex-11">
          <mxGeometry relative="1" as="geometry" />
        </mxCell>
        <mxCell id="bHLAxbNGQcejUqIh85Ex-5" value="PHOTOS" style="shape=ext;margin=3;double=1;whiteSpace=wrap;html=1;align=center;" vertex="1" parent="1">
          <mxGeometry x="780" y="816.67" width="100" height="40" as="geometry" />
        </mxCell>
        <mxCell id="bHLAxbNGQcejUqIh85Ex-7" value="Url" style="ellipse;whiteSpace=wrap;html=1;" vertex="1" parent="1">
          <mxGeometry x="880" y="913.17" width="50" height="30" as="geometry" />
        </mxCell>
        <mxCell id="bHLAxbNGQcejUqIh85Ex-11" value="&lt;u&gt;Photo_seq&lt;/u&gt;" style="ellipse;whiteSpace=wrap;html=1;" vertex="1" parent="1">
          <mxGeometry x="770" y="907.92" width="70" height="39" as="geometry" />
        </mxCell>
        <mxCell id="bHLAxbNGQcejUqIh85Ex-24" style="edgeStyle=none;orthogonalLoop=1;jettySize=auto;html=1;exitX=1;exitY=0.5;exitDx=0;exitDy=0;entryX=0;entryY=0.5;entryDx=0;entryDy=0;endArrow=none;strokeColor=#000000;" edge="1" parent="1" source="bHLAxbNGQcejUqIh85Ex-23" target="bHLAxbNGQcejUqIh85Ex-5">
          <mxGeometry relative="1" as="geometry" />
        </mxCell>
        <mxCell id="bHLAxbNGQcejUqIh85Ex-23" value="CONTAINS" style="shape=rhombus;double=1;perimeter=rhombusPerimeter;whiteSpace=wrap;html=1;align=center;" vertex="1" parent="1">
          <mxGeometry x="640" y="790" width="120" height="60" as="geometry" />
        </mxCell>
        <mxCell id="bHLAxbNGQcejUqIh85Ex-25" value="" style="shape=requiredInterface;html=1;verticalLabelPosition=bottom;rotation=-130;" vertex="1" parent="1">
          <mxGeometry x="640" y="773.75" width="10" height="20" as="geometry" />
        </mxCell>
        <mxCell id="bHLAxbNGQcejUqIh85Ex-26" value="" style="edgeStyle=none;orthogonalLoop=1;jettySize=auto;html=1;exitX=1;exitY=0.5;exitDx=0;exitDy=0;endArrow=none;strokeColor=#000000;" edge="1" parent="1" source="rf6OLHSVhCsBGT3hQJzp-202" target="bHLAxbNGQcejUqIh85Ex-25">
          <mxGeometry relative="1" as="geometry">
            <mxPoint x="675.9435918705931" y="802.0282040647035" as="targetPoint" />
            <mxPoint x="642" y="776.6700000000001" as="sourcePoint" />
          </mxGeometry>
        </mxCell>
      </root>
    </mxGraphModel>
  </diagram>
</mxfile>
